<svg width="21" height="20" viewBox="0 0 21 20" fill="none" xmlns="http://www.w3.org/2000/svg">
<path d="M7.62936 18.7733V15.7156C7.62936 14.9351 8.26796 14.3023 9.05571 14.3023H11.9353C12.3136 14.3023 12.6764 14.4512 12.9439 14.7163C13.2114 14.9813 13.3617 15.3408 13.3617 15.7156V18.7733C13.3593 19.0978 13.4877 19.4099 13.7184 19.6402C13.9492 19.8705 14.2631 20 14.5907 20H16.5552C17.4728 20.0023 18.3536 19.6428 19.0032 19.0008C19.6528 18.3588 20.018 17.487 20.0179 16.5778V7.86686C20.0179 7.13246 19.6894 6.43584 19.1209 5.96467L12.4377 0.675869C11.2751 -0.251438 9.60943 -0.221498 8.48158 0.746979L1.95089 5.96467C1.35549 6.42195 0.999633 7.12064 0.982048 7.86686V16.5689C0.982048 18.4639 2.53235 20 4.44475 20H6.36449C7.04471 20 7.59752 19.4562 7.60245 18.7822L7.62936 18.7733Z" fill="#4838D1"/>
</svg>
