
<svg width="19" height="20" viewBox="0 0 19 20" fill="none" xmlns="http://www.w3.org/2000/svg">
<path fill-rule="evenodd" clip-rule="evenodd" d="M5.6304 20C5.21762 20 4.82588 19.968 4.45718 19.905L4.23877 19.864C1.86329 19.371 0.482681 17.555 0.482681 14.791V5.209C0.482681 4.875 0.502719 4.555 0.542795 4.249C0.892455 1.564 2.74094 0 5.6304 0H13.37C16.572 0 18.4867 1.92 18.5167 5.132V5.209V14.791C18.5167 18.048 16.5971 20 13.37 20H5.6304ZM5.6304 1.457C3.16975 1.457 1.9224 2.72 1.9224 5.209V14.791C1.9224 17.28 3.16975 18.543 5.6304 18.543H13.361C15.8206 18.543 17.06 17.28 17.06 14.791V5.209C17.06 2.72 15.8206 1.457 13.361 1.457H5.6304ZM13.8138 14.234C13.8138 13.834 13.4942 13.51 13.0995 13.51H5.87486C5.48011 13.51 5.15951 13.834 5.15951 14.234C5.15951 14.634 5.48011 14.958 5.87486 14.958H13.0995C13.4942 14.958 13.8138 14.634 13.8138 14.234ZM13.0995 9.271C13.375 9.241 13.6445 9.373 13.7918 9.61C13.9391 9.849 13.9391 10.151 13.7918 10.39C13.6445 10.627 13.375 10.759 13.0995 10.729H5.87486C5.50816 10.687 5.23064 10.374 5.23064 10C5.23064 9.626 5.50816 9.312 5.87486 9.271H13.0995ZM9.27628 5.771C9.27628 5.397 8.99875 5.083 8.63206 5.042H5.88387C5.51618 5.083 5.23866 5.397 5.23866 5.771C5.23866 6.144 5.51618 6.458 5.88387 6.499H8.63206C8.99875 6.458 9.27628 6.144 9.27628 5.771Z" fill="#6A6A8B"/>
</svg>
