<svg width="25" height="24" viewBox="0 0 25 24" fill="none" xmlns="http://www.w3.org/2000/svg">
<path fill-rule="evenodd" clip-rule="evenodd" d="M12.1108 2C6.79246 2 2.48109 6.20819 2.48109 11.3993C2.48109 16.5903 6.79246 20.7985 12.1108 20.7985C14.3854 20.7985 16.4759 20.0287 18.1236 18.7415L21.2536 21.7886L21.3368 21.8586C21.6275 22.0685 22.0394 22.0446 22.3024 21.7873C22.5916 21.5043 22.591 21.0459 22.301 20.7636L19.2078 17.7523C20.7806 16.0794 21.7405 13.8487 21.7405 11.3993C21.7405 6.20819 17.4291 2 12.1108 2ZM12.1108 3.44774C16.61 3.44774 20.2573 7.00776 20.2573 11.3993C20.2573 15.7908 16.61 19.3508 12.1108 19.3508C7.61163 19.3508 3.96433 15.7908 3.96433 11.3993C3.96433 7.00776 7.61163 3.44774 12.1108 3.44774Z" fill="#6A6A8B"/>
</svg>
